<mxfile host="app.diagrams.net" modified="2024-05-30T13:51:31.800Z" agent="Mozilla/5.0 (Windows NT 10.0; Win64; x64) AppleWebKit/537.36 (KHTML, like Gecko) Chrome/124.0.0.0 Safari/537.36 OPR/110.0.0.0" etag="pspkOD8LtfqUIb11Yk4B" version="24.3.1" type="device">
  <diagram name="Strona-1" id="pkPcjRRk3y-1Wlr63PKS">
    <mxGraphModel dx="1620" dy="781" grid="1" gridSize="10" guides="1" tooltips="1" connect="1" arrows="1" fold="1" page="1" pageScale="1" pageWidth="827" pageHeight="1169" math="0" shadow="0">
      <root>
        <mxCell id="0" />
        <mxCell id="1" parent="0" />
        <mxCell id="JQSp_FtADLrM7rb64AE0-1" value="" style="rounded=0;whiteSpace=wrap;html=1;" parent="1" vertex="1">
          <mxGeometry y="40" width="1030" height="60" as="geometry" />
        </mxCell>
        <mxCell id="JQSp_FtADLrM7rb64AE0-11" value="" style="rounded=0;whiteSpace=wrap;html=1;" parent="1" vertex="1">
          <mxGeometry x="160" y="40" width="120" height="60" as="geometry" />
        </mxCell>
        <mxCell id="JQSp_FtADLrM7rb64AE0-12" value="Przejdź do koszyka" style="text;html=1;align=center;verticalAlign=middle;whiteSpace=wrap;rounded=0;" parent="1" vertex="1">
          <mxGeometry x="170" y="55" width="100" height="30" as="geometry" />
        </mxCell>
        <mxCell id="JQSp_FtADLrM7rb64AE0-15" value="" style="rounded=0;whiteSpace=wrap;html=1;" parent="1" vertex="1">
          <mxGeometry x="890" y="40" width="120" height="60" as="geometry" />
        </mxCell>
        <mxCell id="JQSp_FtADLrM7rb64AE0-16" value="Wyloguj się" style="text;html=1;align=center;verticalAlign=middle;whiteSpace=wrap;rounded=0;" parent="1" vertex="1">
          <mxGeometry x="920" y="55" width="60" height="30" as="geometry" />
        </mxCell>
        <mxCell id="JzYvTvMlPtTYD90U_aQI-1" value="" style="rounded=0;whiteSpace=wrap;html=1;" vertex="1" parent="1">
          <mxGeometry y="100" width="1030" height="600" as="geometry" />
        </mxCell>
        <mxCell id="JzYvTvMlPtTYD90U_aQI-6" value="&lt;font style=&quot;font-size: 18px;&quot;&gt;LOGO&lt;/font&gt;" style="text;html=1;align=center;verticalAlign=middle;resizable=0;points=[];autosize=1;strokeColor=none;fillColor=none;" vertex="1" parent="1">
          <mxGeometry x="30" y="50" width="80" height="40" as="geometry" />
        </mxCell>
        <mxCell id="JzYvTvMlPtTYD90U_aQI-7" value="" style="rounded=0;whiteSpace=wrap;html=1;" vertex="1" parent="1">
          <mxGeometry x="270" y="150" width="490" height="60" as="geometry" />
        </mxCell>
        <mxCell id="JzYvTvMlPtTYD90U_aQI-8" value="Wyszukaj produkt..." style="text;html=1;align=center;verticalAlign=middle;resizable=0;points=[];autosize=1;strokeColor=none;fillColor=none;" vertex="1" parent="1">
          <mxGeometry x="284" y="165" width="130" height="30" as="geometry" />
        </mxCell>
        <mxCell id="JzYvTvMlPtTYD90U_aQI-10" value="" style="whiteSpace=wrap;html=1;aspect=fixed;" vertex="1" parent="1">
          <mxGeometry x="120" y="260" width="140" height="140" as="geometry" />
        </mxCell>
        <mxCell id="JzYvTvMlPtTYD90U_aQI-11" value="" style="whiteSpace=wrap;html=1;aspect=fixed;" vertex="1" parent="1">
          <mxGeometry x="780" y="260" width="140" height="140" as="geometry" />
        </mxCell>
        <mxCell id="JzYvTvMlPtTYD90U_aQI-12" value="" style="whiteSpace=wrap;html=1;aspect=fixed;" vertex="1" parent="1">
          <mxGeometry x="445" y="260" width="140" height="140" as="geometry" />
        </mxCell>
        <mxCell id="JzYvTvMlPtTYD90U_aQI-15" value="Produkt" style="text;html=1;align=center;verticalAlign=middle;resizable=0;points=[];autosize=1;strokeColor=none;fillColor=none;" vertex="1" parent="1">
          <mxGeometry x="160" y="420" width="60" height="30" as="geometry" />
        </mxCell>
        <mxCell id="JzYvTvMlPtTYD90U_aQI-16" value="Produkt" style="text;html=1;align=center;verticalAlign=middle;resizable=0;points=[];autosize=1;strokeColor=none;fillColor=none;" vertex="1" parent="1">
          <mxGeometry x="485" y="420" width="60" height="30" as="geometry" />
        </mxCell>
        <mxCell id="JzYvTvMlPtTYD90U_aQI-17" value="Produkt" style="text;html=1;align=center;verticalAlign=middle;resizable=0;points=[];autosize=1;strokeColor=none;fillColor=none;" vertex="1" parent="1">
          <mxGeometry x="820" y="430" width="60" height="30" as="geometry" />
        </mxCell>
        <mxCell id="JzYvTvMlPtTYD90U_aQI-19" value="" style="whiteSpace=wrap;html=1;aspect=fixed;" vertex="1" parent="1">
          <mxGeometry x="120" y="485" width="140" height="140" as="geometry" />
        </mxCell>
        <mxCell id="JzYvTvMlPtTYD90U_aQI-20" value="" style="whiteSpace=wrap;html=1;aspect=fixed;" vertex="1" parent="1">
          <mxGeometry x="780" y="485" width="140" height="140" as="geometry" />
        </mxCell>
        <mxCell id="JzYvTvMlPtTYD90U_aQI-21" value="" style="whiteSpace=wrap;html=1;aspect=fixed;" vertex="1" parent="1">
          <mxGeometry x="445" y="485" width="140" height="140" as="geometry" />
        </mxCell>
        <mxCell id="JzYvTvMlPtTYD90U_aQI-22" value="Produkt" style="text;html=1;align=center;verticalAlign=middle;resizable=0;points=[];autosize=1;strokeColor=none;fillColor=none;" vertex="1" parent="1">
          <mxGeometry x="160" y="645" width="60" height="30" as="geometry" />
        </mxCell>
        <mxCell id="JzYvTvMlPtTYD90U_aQI-23" value="Produkt" style="text;html=1;align=center;verticalAlign=middle;resizable=0;points=[];autosize=1;strokeColor=none;fillColor=none;" vertex="1" parent="1">
          <mxGeometry x="485" y="645" width="60" height="30" as="geometry" />
        </mxCell>
        <mxCell id="JzYvTvMlPtTYD90U_aQI-24" value="Produkt" style="text;html=1;align=center;verticalAlign=middle;resizable=0;points=[];autosize=1;strokeColor=none;fillColor=none;" vertex="1" parent="1">
          <mxGeometry x="820" y="655" width="60" height="30" as="geometry" />
        </mxCell>
        <mxCell id="JzYvTvMlPtTYD90U_aQI-25" value="" style="rounded=0;whiteSpace=wrap;html=1;" vertex="1" parent="1">
          <mxGeometry x="120" y="360" width="140" height="40" as="geometry" />
        </mxCell>
        <mxCell id="JzYvTvMlPtTYD90U_aQI-26" value="&lt;font style=&quot;font-size: 10px;&quot;&gt;Dodaj do koszyka&lt;/font&gt;" style="text;html=1;align=center;verticalAlign=middle;resizable=0;points=[];autosize=1;strokeColor=none;fillColor=none;" vertex="1" parent="1">
          <mxGeometry x="140" y="365" width="100" height="30" as="geometry" />
        </mxCell>
        <mxCell id="JzYvTvMlPtTYD90U_aQI-27" value="" style="rounded=0;whiteSpace=wrap;html=1;" vertex="1" parent="1">
          <mxGeometry x="445" y="360" width="140" height="40" as="geometry" />
        </mxCell>
        <mxCell id="JzYvTvMlPtTYD90U_aQI-28" value="&lt;font style=&quot;font-size: 10px;&quot;&gt;Dodaj do koszyka&lt;/font&gt;" style="text;html=1;align=center;verticalAlign=middle;resizable=0;points=[];autosize=1;strokeColor=none;fillColor=none;" vertex="1" parent="1">
          <mxGeometry x="465" y="365" width="100" height="30" as="geometry" />
        </mxCell>
        <mxCell id="JzYvTvMlPtTYD90U_aQI-29" value="" style="rounded=0;whiteSpace=wrap;html=1;" vertex="1" parent="1">
          <mxGeometry x="780" y="360" width="140" height="40" as="geometry" />
        </mxCell>
        <mxCell id="JzYvTvMlPtTYD90U_aQI-30" value="&lt;font style=&quot;font-size: 10px;&quot;&gt;Dodaj do koszyka&lt;/font&gt;" style="text;html=1;align=center;verticalAlign=middle;resizable=0;points=[];autosize=1;strokeColor=none;fillColor=none;" vertex="1" parent="1">
          <mxGeometry x="800" y="365" width="100" height="30" as="geometry" />
        </mxCell>
        <mxCell id="JzYvTvMlPtTYD90U_aQI-33" value="" style="rounded=0;whiteSpace=wrap;html=1;" vertex="1" parent="1">
          <mxGeometry x="120" y="585" width="140" height="40" as="geometry" />
        </mxCell>
        <mxCell id="JzYvTvMlPtTYD90U_aQI-34" value="&lt;font style=&quot;font-size: 10px;&quot;&gt;Dodaj do koszyka&lt;/font&gt;" style="text;html=1;align=center;verticalAlign=middle;resizable=0;points=[];autosize=1;strokeColor=none;fillColor=none;" vertex="1" parent="1">
          <mxGeometry x="140" y="590" width="100" height="30" as="geometry" />
        </mxCell>
        <mxCell id="JzYvTvMlPtTYD90U_aQI-35" value="" style="rounded=0;whiteSpace=wrap;html=1;" vertex="1" parent="1">
          <mxGeometry x="445" y="585" width="140" height="40" as="geometry" />
        </mxCell>
        <mxCell id="JzYvTvMlPtTYD90U_aQI-36" value="&lt;font style=&quot;font-size: 10px;&quot;&gt;Dodaj do koszyka&lt;/font&gt;" style="text;html=1;align=center;verticalAlign=middle;resizable=0;points=[];autosize=1;strokeColor=none;fillColor=none;" vertex="1" parent="1">
          <mxGeometry x="465" y="590" width="100" height="30" as="geometry" />
        </mxCell>
        <mxCell id="JzYvTvMlPtTYD90U_aQI-37" value="" style="rounded=0;whiteSpace=wrap;html=1;" vertex="1" parent="1">
          <mxGeometry x="780" y="585" width="140" height="40" as="geometry" />
        </mxCell>
        <mxCell id="JzYvTvMlPtTYD90U_aQI-38" value="&lt;font style=&quot;font-size: 10px;&quot;&gt;Dodaj do koszyka&lt;/font&gt;" style="text;html=1;align=center;verticalAlign=middle;resizable=0;points=[];autosize=1;strokeColor=none;fillColor=none;" vertex="1" parent="1">
          <mxGeometry x="800" y="590" width="100" height="30" as="geometry" />
        </mxCell>
      </root>
    </mxGraphModel>
  </diagram>
</mxfile>
